<svg width="20" height="19" viewBox="0 0 20 19" fill="none" xmlns="http://www.w3.org/2000/svg">
<path d="M2.1677 14.1699C1.3697 12.7746 0.922287 11.1809 0.922287 9.48812C0.922287 7.7953 1.3697 6.17628 2.1677 4.80635C2.19307 4.75563 2.21842 4.73256 2.24149 4.70718C3.88589 1.89347 6.94864 0 10.4611 0C13.9483 0 17.011 1.89347 18.6808 4.70715C18.7062 4.73253 18.7315 4.78094 18.7546 4.80632C19.5526 6.17625 20 7.7699 20 9.48809C20 14.7441 15.7403 19.0039 10.4842 19.0039C6.99709 19.0039 3.93431 17.1104 2.26456 14.2967C2.21842 14.2437 2.19307 14.2183 2.1677 14.1699ZM19.0313 9.93551H15.8164C15.7656 11.1809 15.5165 12.4009 15.1198 13.5472H18.035C18.607 12.4494 18.9552 11.2294 19.0313 9.93551ZM18.035 5.4267H15.1199C15.5443 6.57294 15.7679 7.76759 15.8164 9.01299H19.0313C18.9552 7.71686 18.607 6.49683 18.035 5.4267ZM1.86787 9.01299H5.0321C5.08282 7.76759 5.33192 6.57294 5.72861 5.4267H2.86418C2.29222 6.49683 1.94397 7.71686 1.86787 9.01299ZM5.95464 9.01299H9.99066V5.4267H6.72726C6.27751 6.54756 6.00306 7.74224 5.95464 9.01299ZM9.98835 4.50419V1.01707C8.7937 1.98803 7.82043 3.15961 7.1493 4.47881H9.98835V4.50419ZM10.9109 1.06779V4.48112H13.7015C13.0281 3.18499 12.0802 2.03875 10.9109 1.06779ZM10.9109 5.4267V9.01299H14.8962C14.8454 7.76759 14.5733 6.54756 14.1235 5.4267H10.9109ZM14.8962 9.93551H10.9109V13.5472H14.1235C14.571 12.4009 14.8454 11.1809 14.8962 9.93551ZM10.9109 14.4674V17.8807C12.0825 16.9351 13.0281 15.7635 13.7015 14.4674H10.9109ZM9.98835 17.9292V14.4674H7.1493C7.84581 15.7889 8.7937 16.9582 9.98835 17.9292ZM9.98835 13.5472V9.93551H5.95234C6.00306 11.2063 6.27523 12.4263 6.72495 13.5472H9.98835ZM5.0321 9.93551H1.86784C1.94164 11.2316 2.29222 12.477 2.88953 13.5472H5.72858C5.33192 12.4009 5.08286 11.1809 5.0321 9.93551ZM3.43845 4.50419H6.12761C6.69957 3.25878 7.52291 2.0872 8.51925 1.11624C6.45278 1.59134 4.65848 2.81137 3.43845 4.50419ZM12.3062 1.09317C13.3279 2.08948 14.1235 3.23571 14.7232 4.5065H17.4608C16.2407 2.78599 14.4234 1.54059 12.3062 1.09317ZM17.4608 14.4674H14.7463C14.1489 15.7382 13.351 16.8844 12.3293 17.8807C14.4234 17.4079 16.2407 16.1625 17.4608 14.4674ZM8.51925 17.8554C7.52295 16.8591 6.70188 15.7128 6.12761 14.4674H3.46152C4.65848 16.1372 6.45278 17.3826 8.51925 17.8554Z" fill="#333333"/>
</svg>
