<svg width="24" height="24" viewBox="0 0 24 24" fill="none" xmlns="http://www.w3.org/2000/svg">
<path d="M12 6C11.4067 6 10.8266 6.17595 10.3333 6.50559C9.83994 6.83524 9.45543 7.30377 9.22836 7.85195C9.0013 8.40013 8.94189 9.00333 9.05765 9.58527C9.1734 10.1672 9.45912 10.7018 9.87868 11.1213C10.2982 11.5409 10.8328 11.8266 11.4147 11.9424C11.9967 12.0581 12.5999 11.9987 13.1481 11.7716C13.6962 11.5446 14.1648 11.1601 14.4944 10.6667C14.8241 10.1734 15 9.59334 15 9C14.9991 8.20463 14.6827 7.44209 14.1203 6.87968C13.5579 6.31727 12.7954 6.00091 12 6ZM12 10.5C11.7033 10.5 11.4133 10.412 11.1666 10.2472C10.92 10.0824 10.7277 9.84811 10.6142 9.57402C10.5006 9.29994 10.4709 8.99833 10.5288 8.70736C10.5867 8.41639 10.7296 8.14912 10.9393 7.93934C11.1491 7.72956 11.4164 7.5867 11.7074 7.52882C11.9983 7.47094 12.2999 7.50065 12.574 7.61418C12.8481 7.72771 13.0824 7.91997 13.2472 8.16664C13.412 8.41332 13.5 8.70333 13.5 9C13.4995 9.39768 13.3414 9.77895 13.0602 10.0602C12.7789 10.3414 12.3977 10.4995 12 10.5Z" fill="#333333"/>
<path d="M17.6568 3.28559C16.258 1.92121 14.3909 1.11072 12.4157 1.01053C10.4406 0.910347 8.49735 1.52757 6.96116 2.74307C5.42498 3.95858 4.40471 5.6862 4.09727 7.5925C3.78983 9.4988 4.21701 11.4486 5.29638 13.0657L10.8581 21.3963C10.9818 21.5816 11.1511 21.7339 11.3504 21.8394C11.5497 21.9448 11.7729 22 11.9997 22C12.2264 22 12.4496 21.9448 12.6489 21.8394C12.8483 21.7339 13.0175 21.5816 13.1413 21.3963L18.7031 13.0657C19.7046 11.5656 20.1473 9.77528 19.9568 7.99468C19.7663 6.21409 18.9542 4.5515 17.6568 3.28559ZM17.4698 12.2818L11.9997 20.4749L6.52954 12.2818C4.85515 9.77385 5.21427 6.41763 7.38343 4.30111C7.98964 3.70963 8.70932 3.24043 9.50138 2.92032C10.2934 2.60021 11.1424 2.43545 11.9997 2.43545C12.857 2.43545 13.7059 2.60021 14.498 2.92032C15.29 3.24043 16.0097 3.70963 16.6159 4.30111C18.7851 6.41763 19.1442 9.77385 17.4698 12.2818Z" fill="#333333"/>
</svg>
