<svg width="209" height="56" viewBox="0 0 209 56" fill="none" xmlns="http://www.w3.org/2000/svg">
<path d="M16.1173 55.077C13.466 55.5913 10.8853 53.9073 10.2886 51.2732L3.42845 20.993C2.81455 18.2833 4.52749 15.5928 7.24241 15.0024L41.6632 7.51736C44.4926 6.90209 47.2514 8.81132 47.6725 11.6761L52.3054 43.1956C52.694 45.8398 50.9345 48.3221 48.3108 48.8312L16.1173 55.077Z" fill="#E2E2E2"/>
<path d="M16.924 36.3873C16.924 41.0684 13.1354 44.8632 8.462 44.8632C3.78857 44.8632 0 41.0684 0 36.3873C0 31.7062 3.78857 27.9114 8.462 27.9114C13.1354 27.9114 16.924 31.7062 16.924 36.3873Z" fill="#0F9C29"/>
<path d="M44.8287 49.0817C44.8287 52.1245 42.3662 54.5911 39.3284 54.5911C36.2907 54.5911 33.8281 52.1245 33.8281 49.0817C33.8281 46.039 36.2907 43.5724 39.3284 43.5724C42.3662 43.5724 44.8287 46.039 44.8287 49.0817Z" fill="#0F9C29"/>
<path d="M31.5699 0.839208L31.7683 20.4043C31.776 21.1686 30.8493 21.5519 30.3165 21.0048L14.0427 4.29714C13.5682 3.80999 13.8315 2.98962 14.5006 2.8707L30.5759 0.0132671C31.0909 -0.0782694 31.5646 0.315365 31.5699 0.839208Z" fill="#EA4335"/>
<path d="M182.48 36.4499H173.584L172.112 40.7116H167.409L175.44 18.3137H180.656L188.687 40.7116H183.951L182.48 36.4499ZM181.264 32.8611L178.032 23.5047L174.8 32.8611H181.264Z" fill="#333333"/>
<path d="M190.537 31.7717C190.537 29.9773 190.889 28.3858 191.593 26.9973C192.318 25.6088 193.3 24.5407 194.537 23.7931C195.774 23.0454 197.15 22.6716 198.665 22.6716C199.817 22.6716 200.915 22.9279 201.96 23.4406C203.006 23.9319 203.838 24.5941 204.456 25.4272V17H209V40.7116H204.456V38.0841C203.902 38.9599 203.123 39.6649 202.12 40.1989C201.118 40.733 199.955 41 198.633 41C197.139 41 195.774 40.6155 194.537 39.8465C193.3 39.0774 192.318 37.9987 191.593 36.6101C190.889 35.2003 190.537 33.5875 190.537 31.7717ZM204.488 31.8358C204.488 30.7463 204.275 29.8171 203.848 29.0481C203.422 28.2577 202.846 27.6595 202.12 27.2537C201.395 26.8264 200.617 26.6128 199.785 26.6128C198.953 26.6128 198.185 26.8158 197.481 27.2216C196.777 27.6275 196.201 28.2256 195.753 29.016C195.326 29.785 195.113 30.7036 195.113 31.7717C195.113 32.8398 195.326 33.7797 195.753 34.5915C196.201 35.3818 196.777 35.9907 197.481 36.4179C198.206 36.8451 198.974 37.0587 199.785 37.0587C200.617 37.0587 201.395 36.8558 202.12 36.4499C202.846 36.0227 203.422 35.4246 203.848 34.6555C204.275 33.8652 204.488 32.9252 204.488 31.8358Z" fill="#333333"/>
<path d="M82.4633 29.1442C83.7219 29.3792 84.7885 30.02 85.6631 31.0668C86.5377 32.1135 86.975 33.3311 86.975 34.7196C86.975 35.8518 86.687 36.8772 86.1111 37.7957C85.5564 38.6929 84.7352 39.4085 83.6472 39.9426C82.5593 40.4553 81.258 40.7116 79.7435 40.7116H72V18.3137H79.5195C81.7807 18.3137 83.4979 18.8371 84.6712 19.8838C85.8657 20.9306 86.463 22.2871 86.463 23.9533C86.463 25.3418 86.0897 26.474 85.3431 27.3498C84.5965 28.2043 83.6366 28.8024 82.4633 29.1442ZM74.2399 28.215H79.4555C80.9701 28.215 82.1327 27.8625 82.9433 27.1575C83.7752 26.4312 84.1912 25.4379 84.1912 24.1776C84.1912 22.9386 83.7752 21.9666 82.9433 21.2617C82.1327 20.5567 80.9381 20.2043 79.3595 20.2043H74.2399V28.215ZM79.5835 38.8211C81.2047 38.8211 82.4633 38.4366 83.3592 37.6676C84.2765 36.8985 84.7352 35.8411 84.7352 34.4953C84.7352 33.1495 84.2552 32.0814 83.2952 31.2911C82.3566 30.4793 81.0874 30.0734 79.4875 30.0734H74.2399V38.8211H79.5835Z" fill="#333333"/>
<path d="M98.74 40.968C97.0974 40.968 95.6148 40.6048 94.2923 39.8785C92.991 39.1308 91.9564 38.0841 91.1885 36.7383C90.4419 35.3712 90.0686 33.7797 90.0686 31.964C90.0686 30.1482 90.4525 28.5674 91.2205 27.2216C91.9884 25.8545 93.0337 24.8077 94.3563 24.0814C95.6788 23.3338 97.1614 22.9599 98.804 22.9599C100.447 22.9599 101.929 23.3338 103.252 24.0814C104.596 24.8077 105.641 25.8545 106.387 27.2216C107.155 28.5674 107.539 30.1482 107.539 31.964C107.539 33.7583 107.155 35.3391 106.387 36.7063C105.62 38.0734 104.564 39.1308 103.22 39.8785C101.876 40.6048 100.383 40.968 98.74 40.968ZM98.74 39.0134C99.8919 39.0134 100.958 38.757 101.94 38.2443C102.921 37.7103 103.71 36.9199 104.308 35.8732C104.926 34.8051 105.236 33.502 105.236 31.964C105.236 30.4259 104.937 29.1335 104.34 28.0868C103.742 27.0187 102.953 26.2283 101.972 25.7156C100.99 25.1816 99.9239 24.9146 98.772 24.9146C97.62 24.9146 96.5535 25.1816 95.5722 25.7156C94.5909 26.2283 93.8016 27.0187 93.2043 28.0868C92.6284 29.1335 92.3404 30.4259 92.3404 31.964C92.3404 33.502 92.6284 34.8051 93.2043 35.8732C93.8016 36.9199 94.5802 37.7103 95.5402 38.2443C96.5215 38.757 97.5881 39.0134 98.74 39.0134Z" fill="#333333"/>
<path d="M110.598 31.9319C110.598 30.1375 110.95 28.5674 111.654 27.2216C112.38 25.8545 113.372 24.8077 114.63 24.0814C115.91 23.3338 117.35 22.9599 118.95 22.9599C120.614 22.9599 122.043 23.3445 123.238 24.1135C124.454 24.8825 125.328 25.8652 125.861 27.0614V23.2163H128.101V40.7116H125.861V36.8344C125.307 38.0307 124.422 39.024 123.206 39.8144C122.011 40.5834 120.582 40.968 118.918 40.968C117.339 40.968 115.91 40.5941 114.63 39.8465C113.372 39.0988 112.38 38.0414 111.654 36.6742C110.95 35.3071 110.598 33.7263 110.598 31.9319ZM125.861 31.964C125.861 30.5541 125.573 29.3151 124.997 28.247C124.422 27.1789 123.632 26.3565 122.63 25.7797C121.648 25.2029 120.56 24.9146 119.366 24.9146C118.129 24.9146 117.019 25.1923 116.038 25.7477C115.057 26.3031 114.278 27.1148 113.702 28.1829C113.148 29.2296 112.87 30.4793 112.87 31.9319C112.87 33.3632 113.148 34.6235 113.702 35.713C114.278 36.781 115.057 37.6035 116.038 38.1802C117.019 38.7356 118.129 39.0134 119.366 39.0134C120.56 39.0134 121.648 38.725 122.63 38.1482C123.632 37.5714 124.422 36.749 124.997 35.6809C125.573 34.6128 125.861 33.3738 125.861 31.964Z" fill="#333333"/>
<path d="M135.455 26.3244C135.945 25.235 136.692 24.3912 137.694 23.7931C138.718 23.1949 139.966 22.8959 141.438 22.8959V25.235H140.83C139.209 25.235 137.908 25.6729 136.926 26.5487C135.945 27.4246 135.455 28.8879 135.455 30.9386V40.7116H133.215V23.2163H135.455V26.3244Z" fill="#333333"/>
<path d="M143.784 31.9319C143.784 30.1375 144.146 28.5674 144.872 27.2216C145.597 25.8545 146.589 24.8077 147.847 24.0814C149.127 23.3338 150.567 22.9599 152.167 22.9599C153.703 22.9599 155.09 23.3338 156.327 24.0814C157.564 24.8291 158.471 25.8011 159.047 26.9973V17H161.287V40.7116H159.047V36.8024C158.513 38.02 157.639 39.024 156.423 39.8144C155.207 40.5834 153.778 40.968 152.135 40.968C150.535 40.968 149.095 40.5941 147.815 39.8465C146.557 39.0988 145.565 38.0414 144.84 36.6742C144.136 35.3071 143.784 33.7263 143.784 31.9319ZM159.047 31.964C159.047 30.5541 158.759 29.3151 158.183 28.247C157.607 27.1789 156.818 26.3565 155.815 25.7797C154.834 25.2029 153.746 24.9146 152.551 24.9146C151.314 24.9146 150.205 25.1923 149.223 25.7477C148.242 26.3031 147.463 27.1148 146.888 28.1829C146.333 29.2296 146.056 30.4793 146.056 31.9319C146.056 33.3632 146.333 34.6235 146.888 35.713C147.463 36.781 148.242 37.6035 149.223 38.1802C150.205 38.7356 151.314 39.0134 152.551 39.0134C153.746 39.0134 154.834 38.725 155.815 38.1482C156.818 37.5714 157.607 36.749 158.183 35.6809C158.759 34.6128 159.047 33.3738 159.047 31.964Z" fill="#333333"/>
</svg>
