<svg width="22" height="19" viewBox="0 0 22 19" fill="none" xmlns="http://www.w3.org/2000/svg">
<path d="M6.16242 1.5C5.61636 1.49954 5.07571 1.6081 4.57215 1.81931C4.06859 2.03052 3.61226 2.34014 3.22992 2.73C2.44211 3.52979 2.00051 4.60737 2.00051 5.73C2.00051 6.85264 2.44211 7.93022 3.22992 8.73L10.9999 16.5975L18.7699 8.73C19.5577 7.93022 19.9993 6.85264 19.9993 5.73C19.9993 4.60737 19.5577 3.52979 18.7699 2.73C18.3874 2.34042 17.931 2.03096 17.4275 1.81972C16.924 1.60848 16.3834 1.49968 15.8374 1.49968C15.2914 1.49968 14.7509 1.60848 14.2474 1.81972C13.7439 2.03096 13.2875 2.34042 12.9049 2.73L10.9999 4.68L9.10242 2.745C8.72124 2.35049 8.26441 2.0369 7.75926 1.82298C7.25411 1.60906 6.711 1.49921 6.16242 1.5ZM6.16242 2.01214e-06C6.90821 -0.000630028 7.64661 0.147643 8.33434 0.436128C9.02207 0.724614 9.64528 1.1475 10.1674 1.68L10.9999 2.52L11.8324 1.68C12.3552 1.14846 12.9786 0.726309 13.6662 0.438145C14.3538 0.149981 15.0919 0.00157307 15.8374 0.00157307C16.583 0.00157307 17.3211 0.149981 18.0087 0.438145C18.6963 0.726309 19.3196 1.14846 19.8424 1.68C20.906 2.76272 21.502 4.21977 21.502 5.7375C21.502 7.25523 20.906 8.71228 19.8424 9.795L10.9999 18.75L2.15742 9.795C1.09383 8.71228 0.497894 7.25523 0.497894 5.7375C0.497894 4.21977 1.09383 2.76272 2.15742 1.68C2.68008 1.14818 3.30339 0.725734 3.991 0.437298C4.67861 0.148862 5.41677 0.000207074 6.16242 2.01214e-06Z" fill="#333333"/>
</svg>
