<svg width="24" height="24" viewBox="0 0 24 24" fill="none" xmlns="http://www.w3.org/2000/svg">
<path fill-rule="evenodd" clip-rule="evenodd" d="M7.58341 3.057C8.59645 3.01036 8.91945 3 11.5 3C14.0805 3 14.4035 3.01123 15.4157 3.057C16.4279 3.10277 17.1188 3.26427 17.7234 3.49832C18.3564 3.73755 18.9307 4.1115 19.4057 4.59514C19.8894 5.06927 20.2625 5.64273 20.5008 6.27664C20.7357 6.88118 20.8964 7.57209 20.943 8.58255C20.9896 9.59732 21 9.92032 21 12.5C21 15.0805 20.9888 15.4035 20.943 16.4166C20.8972 17.427 20.7357 18.118 20.5008 18.7225C20.2624 19.3565 19.8887 19.9309 19.4057 20.4057C18.9307 20.8894 18.3564 21.2625 17.7234 21.5008C17.1188 21.7357 16.4279 21.8964 15.4175 21.943C14.4035 21.9896 14.0805 22 11.5 22C8.91945 22 8.59645 21.9888 7.58341 21.943C6.57295 21.8972 5.88205 21.7357 5.2775 21.5008C4.64352 21.2624 4.06912 20.8887 3.59427 20.4057C3.11096 19.9313 2.73695 19.3572 2.49832 18.7234C2.26427 18.1188 2.10364 17.4279 2.057 16.4175C2.01036 15.4027 2 15.0797 2 12.5C2 9.91945 2.01123 9.59645 2.057 8.58427C2.10277 7.57209 2.26427 6.88118 2.49832 6.27664C2.73731 5.6428 3.1116 5.06868 3.59514 4.59427C4.06931 4.11107 4.64314 3.73706 5.27664 3.49832C5.88118 3.26427 6.57209 3.10364 7.58255 3.057H7.58341ZM15.3389 4.767C14.337 4.72123 14.0365 4.71173 11.5 4.71173C8.9635 4.71173 8.66295 4.72123 7.66114 4.767C6.73445 4.80932 6.23182 4.96391 5.89673 5.09432C5.45368 5.26705 5.13673 5.47173 4.80423 5.80423C4.48904 6.11086 4.24647 6.48415 4.09432 6.89673C3.96391 7.23182 3.80932 7.73445 3.767 8.66114C3.72123 9.66295 3.71173 9.9635 3.71173 12.5C3.71173 15.0365 3.72123 15.337 3.767 16.3389C3.80932 17.2655 3.96391 17.7682 4.09432 18.1033C4.24632 18.5152 4.489 18.8892 4.80423 19.1958C5.11082 19.511 5.48477 19.7537 5.89673 19.9057C6.23182 20.0361 6.73445 20.1907 7.66114 20.233C8.66295 20.2788 8.96264 20.2883 11.5 20.2883C14.0374 20.2883 14.337 20.2788 15.3389 20.233C16.2655 20.1907 16.7682 20.0361 17.1033 19.9057C17.5463 19.733 17.8633 19.5283 18.1958 19.1958C18.511 18.8892 18.7537 18.5152 18.9057 18.1033C19.0361 17.7682 19.1907 17.2655 19.233 16.3389C19.2788 15.337 19.2883 15.0365 19.2883 12.5C19.2883 9.9635 19.2788 9.66295 19.233 8.66114C19.1907 7.73445 19.0361 7.23182 18.9057 6.89673C18.733 6.45368 18.5283 6.13673 18.1958 5.80423C17.8891 5.48906 17.5158 5.2465 17.1033 5.09432C16.7682 4.96391 16.2655 4.80932 15.3389 4.767ZM10.2866 15.4286C10.9643 15.7107 11.7188 15.7488 12.4214 15.5363C13.1241 15.3239 13.7311 14.8741 14.1389 14.2638C14.5468 13.6534 14.73 12.9205 14.6575 12.19C14.5849 11.4596 14.2611 10.777 13.7411 10.2589C13.4097 9.92764 13.009 9.67402 12.5677 9.51626C12.1265 9.35851 11.6558 9.30054 11.1895 9.34653C10.7232 9.39252 10.2729 9.54133 9.87101 9.78225C9.46912 10.0232 9.12564 10.3502 8.86531 10.7398C8.60497 11.1294 8.43425 11.5718 8.36545 12.0353C8.29664 12.4988 8.33145 12.9718 8.46738 13.4202C8.6033 13.8686 8.83696 14.2813 9.15153 14.6286C9.4661 14.9759 9.85376 15.2491 10.2866 15.4286ZM8.04718 9.04718C8.50061 8.59375 9.03891 8.23407 9.63135 7.98868C10.2238 7.74328 10.8588 7.61698 11.5 7.61698C12.1412 7.61698 12.7762 7.74328 13.3687 7.98868C13.9611 8.23407 14.4994 8.59375 14.9528 9.04718C15.4062 9.50061 15.7659 10.0389 16.0113 10.6313C16.2567 11.2238 16.383 11.8588 16.383 12.5C16.383 13.1412 16.2567 13.7762 16.0113 14.3687C15.7659 14.9611 15.4062 15.4994 14.9528 15.9528C14.0371 16.8686 12.7951 17.383 11.5 17.383C10.2049 17.383 8.96293 16.8686 8.04718 15.9528C7.13144 15.0371 6.61698 13.7951 6.61698 12.5C6.61698 11.2049 7.13144 9.96293 8.04718 9.04718ZM17.466 8.34418C17.5784 8.23819 17.6683 8.11072 17.7305 7.96934C17.7928 7.82796 17.826 7.67553 17.8282 7.52108C17.8305 7.36662 17.8017 7.21329 17.7436 7.07015C17.6856 6.92702 17.5994 6.79699 17.4901 6.68776C17.3809 6.57854 17.2509 6.49234 17.1078 6.43427C16.9646 6.37619 16.8113 6.34743 16.6568 6.34969C16.5024 6.35194 16.35 6.38516 16.2086 6.44737C16.0672 6.50959 15.9397 6.59955 15.8337 6.71191C15.6276 6.93043 15.5147 7.2207 15.5191 7.52108C15.5235 7.82146 15.6448 8.1083 15.8572 8.32073C16.0696 8.53315 16.3565 8.65442 16.6568 8.6588C16.9572 8.66318 17.2475 8.55032 17.466 8.34418Z" fill="#AFAFAF"/>
</svg>
