<svg width="24" height="24" viewBox="0 0 24 24" fill="none" xmlns="http://www.w3.org/2000/svg">
<path d="M8.10085 21C5.65649 21 3.27948 20.3064 1.22569 18.993C1.0349 18.87 0.951847 18.6328 1.02816 18.418C1.10448 18.2032 1.3222 18.0668 1.54666 18.1003C3.26826 18.2994 5.06617 17.9504 6.57453 17.0912C5.08413 16.6438 3.86981 15.4937 3.38049 13.9678C3.32662 13.8022 3.36477 13.6232 3.48149 13.4957C3.55108 13.4174 3.64535 13.3659 3.74635 13.3436C2.58141 12.4553 1.84519 11.0592 1.84519 9.52654C1.84519 9.35426 1.93722 9.16855 2.08761 9.07906C2.23799 8.9918 2.42205 8.96495 2.57244 9.04549C2.61508 9.07011 2.65998 9.09248 2.70262 9.11485C2.1729 8.33623 1.8811 7.40323 1.8811 6.43219C1.8811 5.58869 2.10556 4.75637 2.53203 4.02697C2.61284 3.88825 2.75649 3.79876 2.91586 3.78533C3.07522 3.77415 3.2301 3.83903 3.33335 3.96209C5.31083 6.38073 8.17492 7.9156 11.2635 8.23108C11.25 8.08341 11.2433 7.9335 11.2433 7.78583C11.2433 5.14792 13.3981 3 16.0444 3C17.2745 3 18.4641 3.47433 19.3507 4.31336C20.1677 4.12766 20.9488 3.81442 21.6806 3.3826C21.8557 3.28191 22.0756 3.29534 22.235 3.42063C22.3944 3.54817 22.4572 3.75848 22.3966 3.9509C22.2417 4.43642 22.0105 4.88838 21.7143 5.29559C21.9185 5.22623 22.116 5.14568 22.3136 5.06066C22.5111 4.97116 22.7468 5.02486 22.8859 5.19267C23.0251 5.35824 23.0386 5.59764 22.9173 5.77663C22.3495 6.62014 21.6559 7.35625 20.8568 7.96706C20.8591 8.07222 20.8613 8.17962 20.8613 8.28477C20.8613 14.5339 16.0871 21 8.10085 21ZM3.477 19.0803C4.93149 19.7023 6.50046 20.0245 8.10309 20.0245C15.4766 20.0245 19.8849 14.0551 19.8849 8.2803C19.8849 8.10131 19.8804 7.92231 19.8737 7.74332C19.867 7.57999 19.9433 7.42337 20.0757 7.32716C20.4281 7.07433 20.7581 6.79466 21.0633 6.49037C20.7446 6.5642 20.4214 6.62014 20.0937 6.65817C19.867 6.6895 19.647 6.55078 19.5729 6.33151C19.4988 6.11448 19.5864 5.87508 19.7839 5.75649C20.1722 5.5238 20.5134 5.22847 20.7917 4.88614C20.3047 5.07185 19.8019 5.21728 19.2879 5.31796C19.124 5.35152 18.9534 5.29782 18.8367 5.17477C18.1162 4.40957 17.0994 3.97104 16.0444 3.97104C13.9368 3.97104 12.2219 5.68042 12.2219 7.78135C12.2219 8.07222 12.2556 8.36532 12.3207 8.65171C12.3543 8.79938 12.3184 8.956 12.2197 9.07458C12.1209 9.19093 11.975 9.27147 11.8201 9.2491C8.48243 9.08129 5.33776 7.60236 3.07971 5.15687C2.93606 5.56408 2.85974 5.9959 2.85974 6.42996C2.85974 7.70976 3.49496 8.89335 4.55889 9.60261C4.7407 9.72343 4.81927 9.94941 4.75417 10.1553C4.68683 10.3611 4.48033 10.4864 4.27383 10.4953C3.80696 10.4797 3.34457 10.3969 2.90239 10.2492C3.20541 11.7595 4.37035 12.9565 5.88993 13.2608C6.11215 13.3055 6.276 13.4957 6.28273 13.7217C6.28947 13.9477 6.14133 14.149 5.9236 14.2094C5.50162 14.3236 5.05944 14.3884 4.62623 14.3795C5.28165 15.534 6.51168 16.2858 7.88537 16.3126C8.09187 16.3171 8.27368 16.4513 8.33877 16.646C8.40387 16.8406 8.33877 17.0577 8.17716 17.1852C6.80123 18.2614 5.19187 18.9058 3.477 19.0803Z" fill="#AFAFAF" stroke="#AFAFAF" stroke-width="0.5"/>
</svg>
